<?xml version="1.0" encoding="UTF-8"?>
<svg width="197px" height="100px" viewBox="0 0 197 100" version="1.1" xmlns="http://www.w3.org/2000/svg" xmlns:xlink="http://www.w3.org/1999/xlink">
    <!-- Generator: Sketch 50.2 (55047) - http://www.bohemiancoding.com/sketch -->
    <title>desag-logo-schriftzug</title>
    <desc>Created with Sketch.</desc>
    <defs></defs>
    <g id="desag-logo-schriftzug" stroke="none" stroke-width="1" fill="none" fill-rule="evenodd">
        <g fill-rule="nonzero">
            <g id="Group" transform="translate(101.572477, 0.000000)" fill="#1D3661" opacity="0.09">
                <polygon id="Shape" points="0.144587156 0.144404332 0.144587156 85.9927798 86.1016514 0.144404332"></polygon>
                <polygon id="Shape" points="6.00036697 91.8411552 91.9574312 91.8411552 91.9574312 5.99277978"></polygon>
            </g>
            <g id="Flagge_3_" transform="translate(190.855046, 41.516245)">
                <polygon id="Gold_3_" fill="#FECE03" points="0 44.4404332 5.89192661 44.4404332 5.89192661 31.0469314 0 31.0469314"></polygon>
                <polygon id="Rot_3_" fill="#DC0C15" points="0 29.0974729 5.89192661 29.0974729 5.89192661 15.66787 0 15.66787"></polygon>
                <polygon id="Schwarz_3_" fill="#1D1D1B" points="0 13.6101083 5.89192661 13.6101083 5.89192661 0.216606498 0 0.216606498"></polygon>
            </g>
            <g id="Wortmarke_3_" transform="translate(0.000000, 40.072202)">
                <g id="Group" fill="#1A3761">
                    <polygon id="Shape" points="67.0884404 9.02527076 68.2089908 1.40794224 40.5205505 1.40794224 40.5205505 46.4620939 67.0522936 46.4620939 68.1366972 38.7725632 51.22 38.7725632 51.22 27.2924188 65.0642202 27.2924188 65.0642202 19.8194946 51.22 19.8194946 51.22 9.02527076"></polygon>
                    <path d="M12.6875229,1.40794224 L0.144587156,1.40794224 L0.144587156,46.4259928 L13.6634862,46.4259928 C25.1943119,46.4259928 36.1106422,41.8050542 36.1106422,23.6823105 C36.1106422,5.12635379 24.7244037,1.40794224 12.6875229,1.40794224 Z M14.3141284,38.7364621 L10.8078899,38.7364621 L10.8078899,9.16967509 L14.2056881,9.16967509 C20.4590826,9.16967509 25.0858716,11.6245487 25.0858716,23.7184116 C25.0497248,35.66787 20.7844037,38.7364621 14.3141284,38.7364621 Z" id="Shape"></path>
                    <path d="M167.251193,20.5415162 L168.29945,28.0866426 L174.155229,28.0866426 L174.155229,38.267148 C172.275596,39.3140794 170.251376,39.7472924 168.046422,39.7472924 C161.793028,39.7472924 158.684404,35.7039711 158.684404,23.898917 C158.684404,12.7075812 163.383486,8.05054152 169.673028,8.05054152 C173.323853,8.05054152 175.781835,9.16967509 178.709725,11.6245487 L184.240183,5.84837545 C180.517064,2.59927798 175.637248,0.324909747 169.130826,0.324909747 C157.166239,0.324909747 147.587339,8.62815884 147.587339,23.898917 C147.587339,39.3140794 154.491376,47.5451264 168.082569,47.5451264 C174.010642,47.5451264 179.866422,45.7761733 184.493211,42.8158845 L184.493211,20.5415162 L167.251193,20.5415162 Z" id="Shape"></path>
                    <path d="M91.4513761,18.7725632 C84.4388991,16.5703971 82.74,15.3790614 82.74,12.5270758 C82.74,9.67509025 85.0895413,8.12274368 88.7765138,8.12274368 C92.4273394,8.12274368 95.5359633,9.35018051 98.6807339,11.8772563 L103.632844,6.10108303 C99.6566972,2.3465704 94.9214679,0.324909747 88.0174312,0.324909747 C78.6554128,0.324909747 71.7513761,5.37906137 71.7513761,13.3212996 C71.7513761,20 75.4744954,24.1877256 85.5594495,27.2924188 C92.1381651,29.3140794 93.8370642,30.7942238 93.8370642,34.1155235 C93.8370642,37.5451264 91.0899083,39.6389892 86.68,39.6389892 C82.4146789,39.6389892 78.9445872,38.1588448 75.7636697,35.5956679 C75.7636697,35.5956679 75.6913761,35.5595668 75.6190826,35.4512635 C75.5829358,35.4151625 75.546789,35.3790614 75.5106422,35.3429603 C75.5106422,35.3429603 75.5106422,35.3429603 75.5106422,35.3429603 C75.5106422,35.3429603 75.5106422,35.3429603 75.5106422,35.3429603 C75.5106422,35.3429603 75.4744954,35.3068592 75.4744954,35.3068592 C75.4744954,35.3068592 75.4744954,35.3068592 75.4744954,35.3068592 C75.1853211,35.0902527 74.86,34.801444 74.8238532,34.765343 C74.6792661,34.6209386 74.4623853,34.4404332 74.2093578,34.2238267 L72.9442202,43.5379061 C76.4504587,45.8844765 81.1133945,47.5451264 87.0414679,47.5451264 C98.2831193,47.5451264 104.934128,41.6967509 104.934128,33.3212996 C104.825688,25.0180505 99.9458716,21.5162455 91.4513761,18.7725632 Z" id="Shape"></path>
                    <path d="M120.477248,1.40794224 L106.886055,46.4259928 L117.946972,46.4259928 L120.22422,36.7509025 L133.417798,36.7509025 L135.695046,46.4259928 L147.008991,46.4259928 L133.417798,1.40794224 L120.477248,1.40794224 Z M122.03156,29.0252708 L126.766789,9.13357401 L131.502018,29.0252708 L122.03156,29.0252708 Z" id="Shape"></path>
                </g>
                <g id="Group" transform="translate(0.000000, 51.263538)" fill="#1D3661">
                    <path d="M55.7022018,7.72563177 C54.7262385,7.72563177 53.9310092,7.00361011 53.9310092,5.19855596 C53.9310092,3.32129964 54.7262385,2.67148014 55.7022018,2.67148014 C56.1359633,2.67148014 56.533578,2.81588448 56.8950459,3.14079422 L57.3288073,2.63537906 C56.8588991,2.23826715 56.4251376,2.02166065 55.666055,2.02166065 C54.2563303,2.02166065 53.1357798,3.10469314 53.1357798,5.19855596 C53.1357798,7.25631769 54.2201835,8.37545126 55.7022018,8.37545126 C56.533578,8.37545126 57.1119266,8.05054152 57.4372477,7.68953069 L57.039633,7.18411552 C56.6420183,7.47292419 56.2805505,7.72563177 55.7022018,7.72563177 Z" id="Shape"></path>
                    <polygon id="Shape" points="61.9555963 4.69314079 59.2807339 4.69314079 59.2807339 2.09386282 58.5216514 2.09386282 58.5216514 8.26714801 59.2807339 8.26714801 59.2807339 5.34296029 61.9555963 5.34296029 61.9555963 8.26714801 62.7508257 8.26714801 62.7508257 2.09386282 61.9555963 2.09386282"></polygon>
                    <polygon id="Shape" points="70.3416514 5.45126354 72.4381651 5.45126354 72.4381651 4.80144404 70.3416514 4.80144404 70.3416514 2.74368231 72.7634862 2.74368231 72.8357798 2.09386282 69.546422 2.09386282 69.546422 8.26714801 72.9080734 8.26714801 72.9080734 7.6534296 70.3416514 7.6534296"></polygon>
                    <path d="M78.2216514,3.8267148 C78.2216514,2.70758123 77.426422,2.09386282 75.9082569,2.09386282 L74.3177982,2.09386282 L74.3177982,8.26714801 L75.0768807,8.26714801 L75.0768807,5.63176895 L76.0889908,5.63176895 L77.607156,8.26714801 L78.5469725,8.26714801 L76.8842202,5.48736462 C77.7517431,5.23465704 78.2216514,4.69314079 78.2216514,3.8267148 Z M75.9805505,5.01805054 L75.0768807,5.01805054 L75.0768807,2.70758123 L75.8721101,2.70758123 C76.920367,2.70758123 77.3541284,3.03249097 77.3541284,3.8267148 C77.3902752,4.69314079 76.8842202,5.01805054 75.9805505,5.01805054 Z" id="Shape"></path>
                    <path d="M45.7256881,4.69314079 C44.6051376,4.36823105 44.3521101,4.07942238 44.3521101,3.53790614 C44.3521101,2.92418773 44.8581651,2.63537906 45.5088073,2.63537906 C46.0148624,2.63537906 46.4486239,2.77978339 46.9185321,3.17689531 L47.3522936,2.70758123 C46.8462385,2.23826715 46.3040367,1.98555957 45.4726606,1.98555957 C44.3521101,1.98555957 43.5568807,2.63537906 43.5568807,3.57400722 C43.5568807,4.51263538 44.1713761,4.98194946 45.3642202,5.34296029 C46.4124771,5.66787004 46.7377982,5.9566787 46.7377982,6.57039711 C46.7377982,7.32851986 46.1233028,7.72563177 45.3642202,7.72563177 C44.6774312,7.72563177 44.2075229,7.47292419 43.7376147,7.07581227 L43.3038532,7.58122744 C43.8099083,8.0866426 44.4966972,8.37545126 45.3642202,8.37545126 C46.7016514,8.37545126 47.5330275,7.61732852 47.5330275,6.57039711 C47.5330275,5.41516245 46.7377982,5.01805054 45.7256881,4.69314079 Z" id="Shape"></path>
                    <polygon id="Shape" points="66.1847706 7.4368231 64.5943119 2.09386282 63.726789 2.09386282 65.7510092 8.26714801 66.5823853 8.26714801 68.5343119 2.09386282 67.7752294 2.09386282"></polygon>
                    <path d="M49.8102752,2.09386282 L47.8222018,8.26714801 L48.6174312,8.26714801 L49.0873394,6.67870036 L51.4730275,6.67870036 L51.9429358,8.26714801 L52.7743119,8.26714801 L50.7862385,2.09386282 L49.8102752,2.09386282 Z M49.2680734,6.06498195 L50.2801835,2.74368231 L51.2922936,6.06498195 L49.2680734,6.06498195 Z" id="Shape"></path>
                    <polygon id="Shape" points="6.50642202 5.45126354 8.60293578 5.45126354 8.60293578 4.80144404 6.50642202 4.80144404 6.50642202 2.74368231 8.92825688 2.74368231 9.03669725 2.09386282 5.71119266 2.09386282 5.71119266 8.26714801 9.07284404 8.26714801 9.07284404 7.6534296 6.50642202 7.6534296"></polygon>
                    <path d="M1.26513761,2.09386282 L0,2.09386282 L0,8.26714801 L1.44587156,8.26714801 C2.74715596,8.26714801 4.33761468,7.68953069 4.33761468,5.16245487 C4.30146789,2.59927798 2.78330275,2.09386282 1.26513761,2.09386282 Z M1.48201835,7.6534296 L0.759082569,7.6534296 L0.759082569,2.74368231 L1.40972477,2.74368231 C2.42183486,2.74368231 3.47009174,3.03249097 3.47009174,5.16245487 C3.47009174,7.22021661 2.45798165,7.6534296 1.48201835,7.6534296 Z" id="Shape"></path>
                    <polygon id="Shape" points="37.5926606 5.45126354 39.6891743 5.45126354 39.6891743 4.80144404 37.5926606 4.80144404 37.5926606 2.74368231 40.0144954 2.74368231 40.086789 2.09386282 36.7974312 2.09386282 36.7974312 8.26714801 40.1590826 8.26714801 40.1590826 7.6534296 37.5926606 7.6534296"></polygon>
                    <path d="M89.246422,1.26353791 C89.4994495,1.26353791 89.7163303,1.04693141 89.7163303,0.794223827 C89.7163303,0.541516245 89.4994495,0.324909747 89.246422,0.324909747 C88.9572477,0.324909747 88.7765138,0.541516245 88.7765138,0.794223827 C88.7765138,1.04693141 88.9933945,1.26353791 89.246422,1.26353791 Z" id="Shape"></path>
                    <path d="M13.8442202,6.24548736 C13.8442202,7.22021661 13.4104587,7.72563177 12.506789,7.72563177 C11.6031193,7.72563177 11.1693578,7.22021661 11.1693578,6.24548736 L11.1693578,2.09386282 L10.4102752,2.09386282 L10.4102752,6.28158845 C10.4102752,7.47292419 11.133211,8.33935018 12.5429358,8.33935018 C13.9165138,8.33935018 14.6755963,7.47292419 14.6755963,6.28158845 L14.6755963,2.09386282 L13.880367,2.09386282 L13.880367,6.24548736 L13.8442202,6.24548736 Z" id="Shape"></path>
                    <path d="M91.0899083,1.26353791 C91.3790826,1.26353791 91.5598165,1.04693141 91.5598165,0.794223827 C91.5598165,0.541516245 91.3429358,0.324909747 91.0899083,0.324909747 C90.8368807,0.324909747 90.62,0.541516245 90.62,0.794223827 C90.62,1.04693141 90.8368807,1.26353791 91.0899083,1.26353791 Z" id="Shape"></path>
                    <path d="M27.9053211,7.72563177 C26.9293578,7.72563177 26.1341284,7.00361011 26.1341284,5.19855596 C26.1341284,3.32129964 26.9293578,2.67148014 27.9053211,2.67148014 C28.3390826,2.67148014 28.7366972,2.81588448 29.0981651,3.14079422 L29.5319266,2.63537906 C29.0620183,2.23826715 28.6282569,2.02166065 27.8691743,2.02166065 C26.4594495,2.02166065 25.3388991,3.10469314 25.3388991,5.19855596 C25.3388991,7.25631769 26.4233028,8.37545126 27.9053211,8.37545126 C28.7366972,8.37545126 29.3150459,8.05054152 29.640367,7.68953069 L29.2427523,7.18411552 C28.8812844,7.47292419 28.4836697,7.72563177 27.9053211,7.72563177 Z" id="Shape"></path>
                    <polygon id="Shape" points="34.1948624 4.69314079 31.4838532 4.69314079 31.4838532 2.09386282 30.7247706 2.09386282 30.7247706 8.26714801 31.4838532 8.26714801 31.4838532 5.34296029 34.1948624 5.34296029 34.1948624 8.26714801 34.953945 8.26714801 34.953945 2.09386282 34.1948624 2.09386282"></polygon>
                    <path d="M81.4387156,4.69314079 C80.3181651,4.36823105 80.0651376,4.07942238 80.0651376,3.53790614 C80.0651376,2.92418773 80.5711927,2.63537906 81.2218349,2.63537906 C81.7278899,2.63537906 82.1616514,2.77978339 82.6315596,3.17689531 L83.0653211,2.70758123 C82.5592661,2.23826715 82.0170642,1.98555957 81.1856881,1.98555957 C80.0651376,1.98555957 79.2699083,2.63537906 79.2699083,3.57400722 C79.2699083,4.51263538 79.8844037,4.98194946 81.0772477,5.34296029 C82.1255046,5.66787004 82.4508257,5.9566787 82.4508257,6.57039711 C82.4508257,7.32851986 81.8363303,7.72563177 81.0772477,7.72563177 C80.3904587,7.72563177 79.9205505,7.47292419 79.4506422,7.07581227 L79.0168807,7.58122744 C79.5229358,8.0866426 80.2097248,8.37545126 81.0772477,8.37545126 C82.4146789,8.37545126 83.246055,7.61732852 83.246055,6.57039711 C83.246055,5.41516245 82.4508257,5.01805054 81.4387156,4.69314079 Z" id="Shape"></path>
                    <polygon id="Shape" points="15.6154128 2.77978339 17.3866055 2.77978339 17.3866055 8.26714801 18.1456881 8.26714801 18.1456881 2.77978339 19.8807339 2.77978339 19.9891743 2.09386282 15.6154128 2.09386282"></polygon>
                    <path d="M22.5917431,4.69314079 C21.4711927,4.36823105 21.2181651,4.07942238 21.2181651,3.53790614 C21.2181651,2.92418773 21.7242202,2.63537906 22.3748624,2.63537906 C22.8809174,2.63537906 23.3146789,2.77978339 23.7845872,3.17689531 L24.2183486,2.70758123 C23.7122936,2.23826715 23.1700917,1.98555957 22.3387156,1.98555957 C21.2181651,1.98555957 20.4229358,2.63537906 20.4229358,3.57400722 C20.4229358,4.51263538 21.0374312,4.98194946 22.2302752,5.34296029 C23.2785321,5.66787004 23.6038532,5.9566787 23.6038532,6.57039711 C23.6038532,7.32851986 22.9893578,7.72563177 22.2302752,7.72563177 C21.5434862,7.72563177 21.073578,7.47292419 20.6036697,7.07581227 L20.1699083,7.58122744 C20.6759633,8.0866426 21.3627523,8.37545126 22.2302752,8.37545126 C23.5677064,8.37545126 24.3990826,7.61732852 24.3990826,6.57039711 C24.3990826,5.41516245 23.6038532,5.01805054 22.5917431,4.69314079 Z" id="Shape"></path>
                    <path d="M157.6,4.69314079 C156.47945,4.36823105 156.226422,4.07942238 156.226422,3.53790614 C156.226422,2.92418773 156.732477,2.63537906 157.383119,2.63537906 C157.889174,2.63537906 158.322936,2.77978339 158.792844,3.17689531 L159.226606,2.70758123 C158.72055,2.23826715 158.178349,1.98555957 157.346972,1.98555957 C156.226422,1.98555957 155.431193,2.63537906 155.431193,3.57400722 C155.431193,4.51263538 156.045688,4.98194946 157.238532,5.34296029 C158.286789,5.66787004 158.61211,5.9566787 158.61211,6.57039711 C158.61211,7.32851986 157.997615,7.72563177 157.238532,7.72563177 C156.551743,7.72563177 156.081835,7.47292419 155.611927,7.07581227 L155.178165,7.58122744 C155.68422,8.0866426 156.371009,8.37545126 157.238532,8.37545126 C158.575963,8.37545126 159.407339,7.61732852 159.407339,6.57039711 C159.407339,5.41516245 158.61211,5.01805054 157.6,4.69314079 Z" id="Shape"></path>
                    <polygon id="Shape" points="152.214128 2.09386282 151.418899 2.09386282 151.418899 8.26714801 154.67211 8.26714801 154.744404 7.58122744 152.214128 7.58122744"></polygon>
                    <polygon id="Shape" points="143.032844 5.45126354 145.129358 5.45126354 145.129358 4.80144404 143.032844 4.80144404 143.032844 2.74368231 145.454679 2.74368231 145.563119 2.09386282 142.273761 2.09386282 142.273761 8.26714801 145.635413 8.26714801 145.635413 7.6534296 143.032844 7.6534296"></polygon>
                    <polygon id="Shape" points="147.80422 2.09386282 147.008991 2.09386282 147.008991 8.26714801 150.226055 8.26714801 150.334495 7.58122744 147.80422 7.58122744"></polygon>
                    <path d="M162.913578,7.72563177 C161.937615,7.72563177 161.142385,7.00361011 161.142385,5.19855596 C161.142385,3.32129964 161.937615,2.67148014 162.913578,2.67148014 C163.347339,2.67148014 163.744954,2.81588448 164.106422,3.14079422 L164.540183,2.63537906 C164.070275,2.23826715 163.636514,2.02166065 162.877431,2.02166065 C161.467706,2.02166065 160.347156,3.10469314 160.347156,5.19855596 C160.347156,7.25631769 161.43156,8.37545126 162.913578,8.37545126 C163.744954,8.37545126 164.323303,8.05054152 164.648624,7.68953069 L164.251009,7.18411552 C163.889541,7.47292419 163.491927,7.72563177 162.913578,7.72563177 Z" id="Shape"></path>
                    <polygon id="Shape" points="180.517064 2.09386282 180.517064 2.77978339 182.288257 2.77978339 182.288257 8.26714801 183.083486 8.26714801 183.083486 2.77978339 184.818532 2.77978339 184.890826 2.09386282"></polygon>
                    <polygon id="Shape" points="169.203119 4.69314079 166.49211 4.69314079 166.49211 2.09386282 165.733028 2.09386282 165.733028 8.26714801 166.49211 8.26714801 166.49211 5.34296029 169.203119 5.34296029 169.203119 8.26714801 169.962202 8.26714801 169.962202 2.09386282 169.203119 2.09386282"></polygon>
                    <polygon id="Shape" points="176.938532 8.26714801 177.697615 8.26714801 177.697615 5.5234657 179.757982 5.5234657 179.757982 4.90974729 177.697615 4.90974729 177.697615 2.74368231 180.083303 2.74368231 180.155596 2.09386282 176.938532 2.09386282"></polygon>
                    <path d="M139.128991,4.69314079 C138.00844,4.36823105 137.755413,4.07942238 137.755413,3.53790614 C137.755413,2.92418773 138.261468,2.63537906 138.91211,2.63537906 C139.418165,2.63537906 139.851927,2.77978339 140.321835,3.17689531 L140.755596,2.70758123 C140.249541,2.23826715 139.707339,1.98555957 138.875963,1.98555957 C137.755413,1.98555957 136.960183,2.63537906 136.960183,3.57400722 C136.960183,4.51263538 137.574679,4.98194946 138.767523,5.34296029 C139.81578,5.66787004 140.141101,5.9566787 140.141101,6.57039711 C140.141101,7.32851986 139.526606,7.72563177 138.767523,7.72563177 C138.080734,7.72563177 137.610826,7.47292419 137.140917,7.07581227 L136.707156,7.58122744 C137.213211,8.0866426 137.9,8.37545126 138.767523,8.37545126 C140.104954,8.37545126 140.93633,7.61732852 140.93633,6.57039711 C140.93633,5.41516245 140.141101,5.01805054 139.128991,4.69314079 Z" id="Shape"></path>
                    <path d="M172.962385,2.09386282 L170.974312,8.26714801 L171.769541,8.26714801 L172.23945,6.67870036 L174.625138,6.67870036 L175.095046,8.26714801 L175.926422,8.26714801 L173.938349,2.09386282 L172.962385,2.09386282 Z M172.420183,6.06498195 L173.432294,2.74368231 L174.444404,6.06498195 L172.420183,6.06498195 Z" id="Shape"></path>
                    <path d="M101.030275,2.09386282 L99.7651376,2.09386282 L99.7651376,8.26714801 L101.211009,8.26714801 C102.512294,8.26714801 104.102752,7.68953069 104.102752,5.16245487 C104.066606,2.59927798 102.584587,2.09386282 101.030275,2.09386282 Z M101.247156,7.6534296 L100.52422,7.6534296 L100.52422,2.74368231 L101.174862,2.74368231 C102.186972,2.74368231 103.235229,3.03249097 103.235229,5.16245487 C103.235229,7.22021661 102.223119,7.6534296 101.247156,7.6534296 Z" id="Shape"></path>
                    <rect id="Rectangle-path" x="105.512477" y="2.09386282" width="1" height="6.1732852"></rect>
                    <polygon id="Shape" points="88.053578 2.09386282 83.6798165 2.09386282 83.6798165 2.77978339 85.4510092 2.77978339 85.4510092 8.26714801 86.2462385 8.26714801 86.2462385 2.77978339 87.9812844 2.77978339"></polygon>
                    <path d="M97.1987156,5.55956679 C97.1987156,6.31768953 97.2710092,7.25631769 97.307156,7.4368231 L94.7045872,2.1299639 L93.6924771,2.1299639 L93.6924771,8.3032491 L94.4154128,8.3032491 L94.4154128,5.34296029 C94.4154128,4.22382671 94.3431193,3.50180505 94.3069725,2.99638989 L96.9095413,8.3032491 L97.9577982,8.3032491 L97.9577982,2.1299639 L97.2348624,2.1299639 L97.2348624,5.55956679 L97.1987156,5.55956679 Z" id="Shape"></path>
                    <polygon id="Shape" points="133.417798 5.45126354 135.514312 5.45126354 135.514312 4.80144404 133.417798 4.80144404 133.417798 2.74368231 135.839633 2.74368231 135.911927 2.09386282 132.622569 2.09386282 132.622569 8.26714801 135.98422 8.26714801 135.98422 7.6534296 133.417798 7.6534296"></polygon>
                    <path d="M89.6801835,2.09386282 L87.6921101,8.26714801 L88.4873394,8.26714801 L88.9572477,6.67870036 L91.3429358,6.67870036 L91.812844,8.26714801 L92.6442202,8.26714801 L90.6561468,2.09386282 L89.6801835,2.09386282 Z M89.1379817,6.06498195 L90.1500917,2.74368231 L91.1622018,6.06498195 L89.1379817,6.06498195 Z" id="Shape"></path>
                    <path d="M110.356147,5.5234657 L111.476697,5.5234657 L111.476697,7.4368231 C111.115229,7.6534296 110.717615,7.72563177 110.283853,7.72563177 C109.163303,7.72563177 108.548807,6.96750903 108.548807,5.16245487 C108.548807,3.32129964 109.452477,2.63537906 110.356147,2.63537906 C110.898349,2.63537906 111.295963,2.77978339 111.729725,3.14079422 L112.199633,2.67148014 C111.693578,2.23826715 111.187523,2.02166065 110.356147,2.02166065 C108.982569,2.02166065 107.717431,3.10469314 107.717431,5.19855596 C107.717431,7.32851986 108.729541,8.41155235 110.247706,8.41155235 C111.079083,8.41155235 111.729725,8.19494585 112.271927,7.8700361 L112.271927,4.90974729 L110.283853,4.90974729 L110.356147,5.5234657 Z" id="Shape"></path>
                    <path d="M129.260917,5.5234657 L130.381468,5.5234657 L130.381468,7.4368231 C130.02,7.6534296 129.622385,7.72563177 129.188624,7.72563177 C128.068073,7.72563177 127.453578,6.96750903 127.453578,5.16245487 C127.453578,3.32129964 128.357248,2.63537906 129.260917,2.63537906 C129.803119,2.63537906 130.200734,2.77978339 130.634495,3.14079422 L131.104404,2.67148014 C130.598349,2.23826715 130.092294,2.02166065 129.260917,2.02166065 C127.887339,2.02166065 126.622202,3.10469314 126.622202,5.19855596 C126.622202,7.32851986 127.634312,8.41155235 129.152477,8.41155235 C129.983853,8.41155235 130.634495,8.19494585 131.176697,7.8700361 L131.176697,4.90974729 L129.188624,4.90974729 L129.260917,5.5234657 Z" id="Shape"></path>
                    <path d="M122.03156,5.55956679 C122.03156,6.31768953 122.103853,7.25631769 122.14,7.4368231 L119.537431,2.1299639 L118.525321,2.1299639 L118.525321,8.3032491 L119.248257,8.3032491 L119.248257,5.34296029 C119.248257,4.22382671 119.175963,3.50180505 119.139817,2.99638989 L121.742385,8.3032491 L122.790642,8.3032491 L122.790642,2.1299639 L122.067706,2.1299639 L122.067706,5.55956679 L122.03156,5.55956679 Z" id="Shape"></path>
                    <polygon id="Shape" points="114.513028 5.45126354 116.609541 5.45126354 116.609541 4.80144404 114.513028 4.80144404 114.513028 2.74368231 116.934862 2.74368231 117.043303 2.09386282 113.753945 2.09386282 113.753945 8.26714801 117.115596 8.26714801 117.115596 7.6534296 114.513028 7.6534296"></polygon>
                </g>
            </g>
        </g>
    </g>
</svg>